<svg width="40" height="40" viewBox="0 0 40 40" fill="none" xmlns="http://www.w3.org/2000/svg">
<g clip-path="url(#clip0)">
<path d="M20 40C31.0457 40 40 31.0457 40 20C40 8.9543 31.0457 0 20 0C8.9543 0 0 8.9543 0 20C0 31.0457 8.9543 40 20 40Z" fill="black"/>
<path d="M27.7853 25.7829L28.6712 20.0004H23.1248V16.2483C23.1248 14.6677 23.8983 13.1235 26.3844 13.1235H28.9053V8.20176C28.9053 8.20176 26.616 7.81082 24.4276 7.81082C19.86 7.81082 16.8733 10.5782 16.8733 15.5928V20.0004H11.7959V25.7829H16.8753V39.7584C17.909 39.9204 18.9538 40.0014 20.0001 40.0005C21.0463 40 22.0909 39.919 23.1248 39.7584V25.7829H27.7853Z" fill="white"/>
</g>
<defs>
<clipPath id="clip0">
<rect width="40" height="40" fill="white"/>
</clipPath>
</defs>
</svg>
