<svg width="512" height="512" viewBox="0 0 512 512" fill="none" xmlns="http://www.w3.org/2000/svg">
<path d="M492.438 397.75L490.063 390.594C484.438 373.875 466 356.438 449.063 351.844L386.375 334.719C369.375 330.094 345.125 336.313 332.687 348.75L310 371.438C227.547 349.157 162.891 284.5 140.641 202.063L163.329 179.375C175.767 166.937 181.985 142.719 177.36 125.719L160.266 63C155.641 46.031 138.172 27.594 121.485 22.031L114.329 19.625C97.61 14.062 73.766 19.688 61.329 32.125L27.391 66.094C21.328 72.125 17.453 89.375 17.453 89.438C16.266 197.188 58.516 301 134.734 377.219C210.765 453.25 314.187 495.438 421.625 494.532C422.188 494.532 439.938 490.719 446 484.688L479.938 450.75C492.375 438.313 498 414.469 492.438 397.75Z" fill="#585858"/>
</svg>
